<?xml version="1.0" encoding="UTF-8" standalone="no"?>
<!-- Created with Inkscape (http://www.inkscape.org/) -->

<svg
   xmlns:dc="http://purl.org/dc/elements/1.1/"
   xmlns:cc="http://creativecommons.org/ns#"
   xmlns:rdf="http://www.w3.org/1999/02/22-rdf-syntax-ns#"
   xmlns:svg="http://www.w3.org/2000/svg"
   xmlns="http://www.w3.org/2000/svg"
   xmlns:sodipodi="http://sodipodi.sourceforge.net/DTD/sodipodi-0.dtd"
   xmlns:inkscape="http://www.inkscape.org/namespaces/inkscape"
   width="48px"
   height="48px"
   id="svg4823"
   version="1.1"
   inkscape:version="0.48.4 r9939"
   sodipodi:docname="disegno.svg"
   inkscape:export-filename="/home/andrea/Scrivania/feed.png"
   inkscape:export-xdpi="120"
   inkscape:export-ydpi="120">
  <defs
     id="defs4825" />
  <sodipodi:namedview
     id="base"
     pagecolor="#ffffff"
     bordercolor="#666666"
     borderopacity="1.0"
     inkscape:pageopacity="0.0"
     inkscape:pageshadow="2"
     inkscape:zoom="9.8994949"
     inkscape:cx="17.629462"
     inkscape:cy="24.191825"
     inkscape:current-layer="layer1"
     showgrid="true"
     inkscape:grid-bbox="true"
     inkscape:document-units="px"
     inkscape:snap-global="true"
     inkscape:snap-bbox="true"
     inkscape:window-width="1366"
     inkscape:window-height="694"
     inkscape:window-x="0"
     inkscape:window-y="25"
     inkscape:window-maximized="1"
     showguides="true" />
  <metadata
     id="metadata4828">
    <rdf:RDF>
      <cc:Work
         rdf:about="">
        <dc:format>image/svg+xml</dc:format>
        <dc:type
           rdf:resource="http://purl.org/dc/dcmitype/StillImage" />
        <dc:title></dc:title>
      </cc:Work>
    </rdf:RDF>
  </metadata>
  <g
     id="layer1"
     inkscape:label="Layer 1"
     inkscape:groupmode="layer">
    <path
       style="fill:#ffbd2c;fill-opacity:1;stroke:#ff8a00;stroke-width:1.12559116;stroke-opacity:1"
       d="M 39.878213,5.4987273 37.539574,7.1261291 C 41.62143,13.767979 41.270095,21.976521 37.198753,28.189949 l 2.144571,1.850195 C 44.24007,22.853463 44.712325,13.229196 39.878213,5.4987282 z m -6.958174,4.8420227 -2.309767,1.607311 c 1.91017,3.416584 1.84062,7.482757 0.08824,10.780448 l 2.173443,1.830105 c 2.523154,-4.274874 2.676614,-9.720073 0.04807,-14.217864 z"
       id="path5357"
       inkscape:connector-curvature="0" />
    <path
       style="fill:#ffbd2c;fill-opacity:1;stroke:#ff8a00;stroke-width:1.12559116;stroke-opacity:1"
       d="M 8.1217871,5.4987273 10.460427,7.1261291 C 6.3785706,13.767979 6.7299055,21.976521 10.801247,28.189949 L 8.6566768,30.040144 C 3.7599302,22.853462 3.2876756,13.229195 8.1217871,5.4987273 z m 6.9581749,4.8420227 2.309766,1.607311 c -1.91017,3.416585 -1.840619,7.482757 -0.08824,10.780448 l -2.173442,1.830104 C 12.604888,20.28374 12.451427,14.83854 15.079966,10.340749 z"
       id="path5357-4"
       inkscape:connector-curvature="0" />
    <path
       style="fill:#ffbd2c;fill-opacity:1;stroke:#ff8a00;stroke-width:0.93879205;stroke-miterlimit:4;stroke-opacity:1;stroke-dasharray:none"
       d="m 24,14.494607 c -1.451379,0 -2.620956,1.332824 -2.620956,2.986785 0,1.098306 0.512626,2.050738 1.28621,2.571955 l -3.882898,9.707054 -5.241914,12.998049 10.459558,0 10.459558,0 -5.241913,-12.998049 -3.882898,-9.707054 c 0.773584,-0.521217 1.28621,-1.473649 1.28621,-2.571955 0,-1.653961 -1.169577,-2.986785 -2.620957,-2.986785 z"
       id="path5450"
       inkscape:connector-curvature="0" />
  </g>
</svg>
